<?xml version="1.0" encoding="UTF-8"?>
<!DOCTYPE svg PUBLIC "-//W3C//DTD SVG 1.1//EN" "http://www.w3.org/Graphics/SVG/1.1/DTD/svg11.dtd">
<!-- Creator: CorelDRAW 2020 (64 Bit) -->
<svg xmlns="http://www.w3.org/2000/svg" xml:space="preserve" width="91.8913mm" height="38.8671mm" version="1.1" style="shape-rendering:geometricPrecision; text-rendering:geometricPrecision; image-rendering:optimizeQuality; fill-rule:evenodd; clip-rule:evenodd"
viewBox="0 0 9531.76 4031.63"
 xmlns:xlink="http://www.w3.org/1999/xlink"
 xmlns:xodm="http://www.corel.com/coreldraw/odm/2003">
 <defs>
  <style type="text/css">
   <![CDATA[
    .fil0 {fill:#FEFEFE;fill-rule:nonzero}
    .fil4 {fill:url(#id0)}
    .fil5 {fill:url(#id1)}
    .fil1 {fill:url(#id2)}
    .fil2 {fill:url(#id3)}
    .fil3 {fill:url(#id4)}
   ]]>
  </style>
  <linearGradient id="id0" gradientUnits="userSpaceOnUse" x1="4852.72" y1="1556.41" x2="6233.09" y2="1556.41">
   <stop offset="0" style="stop-opacity:1; stop-color:#FFE400"/>
   <stop offset="1" style="stop-opacity:1; stop-color:#F49E41"/>
  </linearGradient>
  <linearGradient id="id1" gradientUnits="userSpaceOnUse" x1="6250.01" y1="1578.53" x2="7542.66" y2="1578.53">
   <stop offset="0" style="stop-opacity:1; stop-color:#FFE400"/>
   <stop offset="0.368627" style="stop-opacity:1; stop-color:#FFE400"/>
   <stop offset="1" style="stop-opacity:1; stop-color:#F49E41"/>
  </linearGradient>
  <radialGradient id="id2" gradientUnits="userSpaceOnUse" gradientTransform="matrix(-1.45069 1.27306 1.22835 1.50349 8489 -4885)" cx="3672.61" cy="416.24" r="10814.46" fx="3672.61" fy="416.24">
   <stop offset="0" style="stop-opacity:1; stop-color:#0C9CFF"/>
   <stop offset="0.0196078" style="stop-opacity:1; stop-color:#0C9CFF"/>
   <stop offset="1" style="stop-opacity:1; stop-color:#002771"/>
  </radialGradient>
  <radialGradient id="id3" gradientUnits="userSpaceOnUse" gradientTransform="matrix(-1.86129 2.47142 2.47144 1.86127 11717 -11949)" cx="4622.3" cy="610.49" r="12402" fx="4622.3" fy="610.49">
   <stop offset="0" style="stop-opacity:1; stop-color:#E6F5F6"/>
   <stop offset="0.478431" style="stop-opacity:1; stop-color:#65B7FB"/>
   <stop offset="0.639216" style="stop-opacity:1; stop-color:#006CD3"/>
   <stop offset="1" style="stop-opacity:1; stop-color:#006CD3"/>
  </radialGradient>
  <radialGradient id="id4" gradientUnits="userSpaceOnUse" gradientTransform="matrix(-1.93043 2.65777 2.65775 1.93045 11904 -12836)" xlink:href="#id3" cx="4616.02" cy="610.49" r="11533.23" fx="4616.02" fy="610.49">
  </radialGradient>
 </defs>
 <g id="Camada_x0020_1">
  <metadata id="CorelCorpID_0Corel-Layer"/>
  <g id="_2414084265392">
   <path class="fil0" d="M316.07 3859.81c104,0 168.34,-56.66 198.1,-168.1 29.26,-109.59 -4.81,-166.24 -108.81,-166.24l-97.49 0 -89.29 334.34 97.49 0zm-142.45 -492.22l273.91 0c225.63,0 304.75,110.51 247.45,325.05 -57.29,214.53 -195.45,325.05 -421.08,325.05l-273.91 0 173.62 -650.11z"/>
   <polygon class="fil0" points="837.13,3367.59 1375.67,3367.59 1333.5,3525.48 971.38,3525.48 947.82,3613.7 1272.8,3613.7 1230.64,3771.58 905.65,3771.58 882.09,3859.81 1253.5,3859.81 1211.33,4017.7 663.51,4017.7 "/>
   <polygon class="fil0" points="1449.47,3367.59 1625.89,3367.59 1732,3773.44 2054.87,3367.59 2231.29,3367.59 2057.66,4017.7 1881.25,4017.7 1961.36,3717.72 1722.48,4017.7 1611.05,4017.7 1532.39,3717.72 1452.27,4017.7 1275.85,4017.7 "/>
   <path class="fil0" d="M2489.74 3869.1c103.99,0 169.08,-59.44 200.33,-176.45 31.24,-117.03 -2.08,-176.45 -106.08,-176.45 -113.28,0 -169.08,59.43 -200.33,176.45 -31.25,117.02 2.08,176.45 106.08,176.45zm137.66 -515.44c225.62,0 303.25,116.08 243.73,338.99 -59.53,222.89 -199.17,338.99 -424.8,338.99 -225.62,0 -303.26,-116.09 -243.73,-338.99 59.52,-222.9 199.17,-338.99 424.8,-338.99z"/>
   <path class="fil0" d="M2905.66 3692.64c61.01,-228.47 197.31,-338.99 419.23,-338.99 204.27,0 302.48,66.86 256.34,239.6l-167.13 0c16.37,-61.29 -58.34,-77.08 -132.63,-77.08 -107.7,0 -161.76,52.94 -194.51,175.53 -33.23,124.45 7.42,177.39 122.56,177.39 65,0 136.61,-7.43 152.99,-68.72l167.13 0c-46.14,172.74 -181.54,231.25 -362.6,231.25 -237.69,0 -322.39,-110.52 -261.38,-338.99z"/>
   <path class="fil0" d="M3910.57 3655.49c97.49,0 114.59,-22.28 126,-65.01 11.41,-42.73 6.22,-65.02 -91.27,-65.02l-114.22 0 -34.72 130.02 114.21 0zm-213.73 -287.9l297.12 0c215.41,0 262.86,76.16 223.67,222.89 -30.51,114.24 -90.45,185.75 -216.25,211.75l102.16 215.47 -213.56 0 -96.78 -204.31 -39 0 -54.56 204.31 -176.42 0 173.62 -650.11z"/>
   <path class="fil0" d="M4582.39 3775.3l-17.45 -160.67 -104.2 160.67 121.64 0zm-46.18 -407.72l188.49 0 74.29 650.12 -188.49 0 -9.93 -84.52 -242.34 0 -55.07 84.52 -188.49 0 421.53 -650.12z"/>
   <path class="fil0" d="M4852 3692.64c61.01,-228.47 197.3,-338.99 419.22,-338.99 204.27,0 302.48,66.86 256.34,239.6l-167.13 0c16.37,-61.29 -58.34,-77.08 -132.62,-77.08 -107.71,0 -161.78,52.94 -194.51,175.53 -33.23,124.45 7.41,177.39 122.54,177.39 65,0 136.62,-7.43 152.99,-68.72l167.14 0c-46.14,172.74 -181.55,231.25 -362.6,231.25 -237.7,0 -322.39,-110.52 -261.38,-338.99z"/>
   <polygon class="fil0" points="5642.7,3367.59 5819.12,3367.59 5645.5,4017.7 5469.08,4017.7 "/>
   <path class="fil0" d="M6131.13 3775.3l-17.44 -160.67 -104.2 160.67 121.63 0zm-46.18 -407.72l188.49 0 74.3 650.12 -188.49 0 -9.93 -84.52 -242.34 0 -55.07 84.52 -188.49 0 421.52 -650.12z"/>
   <path class="fil0" d="M6481.21 3691.71c61.01,-228.46 194.28,-338.05 409.7,-338.05 197.77,0 293.19,66.86 247.06,239.61l-86.35 0c34.97,-130.96 -76.75,-154.17 -188.17,-154.17 -160.63,0 -240.39,76.16 -287.28,251.69 -47.87,179.24 12.58,255.4 184.36,255.4 96.56,0 205.52,-18.58 239.5,-145.81l86.34 0c-46.13,172.74 -177.82,231.25 -354.23,231.25 -230.28,0 -311.93,-111.45 -250.92,-339.92z"/>
   <path class="fil0" d="M7459.03 3680.57c128.14,0 180.33,-39.01 200.67,-115.16 20.33,-76.16 -11.28,-114.24 -139.41,-114.24l-201.48 0 -61.27 229.4 201.49 0zm-207.97 -312.98l290.62 0c187.56,0 246.52,67.8 211.8,197.82 -32.49,121.65 -114.42,188.53 -268.24,197.81l136.31 254.48 -111.43 0 -134.7 -253.54 -140.2 0 -67.71 253.54 -90.08 0 173.63 -650.11z"/>
   <polygon class="fil0" points="7854.68,3367.59 7944.75,3367.59 7771.14,4017.7 7681.06,4017.7 "/>
   <path class="fil0" d="M7960.77 3538.47c34.97,-130.95 134.78,-184.81 326.06,-184.81 167.13,0 252.96,57.58 209.3,221.04l-86.35 0c31.5,-117.95 -52.74,-132.81 -153.02,-132.81 -134.63,0 -185.09,32.51 -201.21,92.88 -17.12,64.08 44.46,87.3 162.74,106.8 165.95,28.8 248.32,71.52 213.35,202.47 -35.46,132.8 -138.31,187.6 -334.22,187.6 -170.85,0 -260.39,-57.58 -216.74,-221.04l86.35 0c-32.25,120.73 57.57,135.59 161.56,135.59 121.64,0 189,-29.73 206.86,-96.59 25.55,-95.66 -96.52,-97.52 -174.69,-114.24 -140.14,-31.57 -235.94,-62.23 -199.98,-196.89z"/>
   <polygon class="fil0" points="8763.19,3451.18 8546.84,3451.18 8569.16,3367.58 9091.92,3367.58 9069.6,3451.18 8853.26,3451.18 8701.96,4017.7 8611.89,4017.7 "/>
   <path class="fil0" d="M9278.9 3157.7c76.14,0 88.11,87.3 135.46,87.3 29.71,0 43.29,-33.43 55.19,-78.01l62.21 0c-19.84,74.3 -55.09,140.24 -124.73,140.24 -87.28,0 -78.82,-87.3 -141.03,-87.3 -21.36,0 -47.86,15.79 -64.48,78.01l-62.21 0c19.35,-72.44 60.66,-140.24 139.59,-140.24zm39.62 654.76l-50.55 -328.77 -225.22 328.77 275.76 0zm-67.82 -444.87l97.48 0 98.44 650.12 -97.49 0 -18.58 -121.66 -345.41 0 -83.56 121.66 -97.48 0 446.6 -650.12z"/>
   <path class="fil1" d="M3763.74 0l-1317.29 0c-62.63,0 -127.02,50.78 -143.8,113.42l0 0 -496.89 1854.39c-16.78,62.64 20.39,113.42 83.02,113.42l0 0 602.35 0 714.95 0c383.14,0 776.96,-310.59 879.63,-693.74l0 0 -1408.7 0 185.89 -693.75 1408.69 0c102.66,-383.14 -124.71,-693.74 -507.86,-693.74z"/>
   <path class="fil2" d="M4878.53 693.74l-1321.89 0c-383.14,0 -776.96,310.6 -879.62,693.75l0 0 2015.61 0c62.63,0 127.02,-50.78 143.8,-113.42l0 0 125.11 -466.91c16.79,-62.64 -20.38,-113.42 -83.01,-113.42zm-2201.52 693.75l0.01 0 -0.01 0z"/>
   <path class="fil3" d="M2998.99 2774.96l1322.8 0c62.63,0 127.02,-50.78 143.8,-113.42l0 0 125.12 -466.91c16.77,-62.63 -20.39,-113.41 -83.03,-113.41l0 0 -2016.54 0c-102.66,383.14 124.71,693.74 507.86,693.74z"/>
   <path class="fil4" d="M4926.27 1368.67l432.26 0c36.93,-158.02 101.43,-194.69 262.3,-197.22l0 0c153.66,0 211.1,53.1 193.13,125.16l0 0c-22.38,89.76 -174.18,141.6 -363.96,207.33l0 0c-310.18,103.67 -636.49,247.79 -733.26,635.91l0 0 -71.55 286.98 1383.03 0 121.04 -485.46 -565.2 0c48.31,-61.95 149.93,-103.67 274.56,-145.39l0 0c231.87,-79.64 434.25,-188.37 522.5,-542.36l0 0c103.39,-414.67 -150.6,-567.63 -575.46,-567.63l0 0c-418.29,0 -736.61,109.98 -879.4,682.68l0 0z"/>
   <polygon class="fil5" points="7754.47,728.97 6461.84,728.97 6337.96,1225.81 6990.83,1225.81 6066.13,2428.09 6712.05,2428.09 7630.6,1225.81 "/>
  </g>
 </g>
</svg>
