<?xml version="1.0" encoding="UTF-8"?>
<!DOCTYPE svg PUBLIC "-//W3C//DTD SVG 1.1//EN" "http://www.w3.org/Graphics/SVG/1.1/DTD/svg11.dtd">
<!-- Creator: CorelDRAW 2020 (64 Bit) -->
<svg xmlns="http://www.w3.org/2000/svg" xml:space="preserve" width="132.059mm" height="41.4409mm" version="1.1" style="shape-rendering:geometricPrecision; text-rendering:geometricPrecision; image-rendering:optimizeQuality; fill-rule:evenodd; clip-rule:evenodd"
viewBox="0 0 13191.68 4139.62"
 xmlns:xlink="http://www.w3.org/1999/xlink"
 xmlns:xodm="http://www.corel.com/coreldraw/odm/2003">
 <defs>
  <style type="text/css">
   <![CDATA[
    .fil1 {fill:#FEFEFE}
    .fil3 {fill:#373435}
    .fil0 {fill:#FEFEFE;fill-rule:nonzero}
    .fil2 {fill:url(#id0)}
   ]]>
  </style>
  <linearGradient id="id0" gradientUnits="userSpaceOnUse" x1="11722.85" y1="4115.02" x2="12206.17" y2="1644.14">
   <stop offset="0" style="stop-opacity:1; stop-color:#54A246"/>
   <stop offset="1" style="stop-opacity:1; stop-color:#8DDB6B"/>
  </linearGradient>
 </defs>
 <g id="Camada_x0020_1">
  <metadata id="CorelCorpID_0Corel-Layer"/>
  <g id="_2378239066208">
   <path class="fil0" d="M249.42 160l-212.01 0 0 560.02 128 0 0 -176 84.01 0c110.4,0 196,-85.61 196,-192 0,-106.41 -85.6,-192.01 -196,-192.01zm0 264l-84.01 0 0 -143.99 84.01 0c39.2,0 68,31.2 68,72 0,40.8 -28.8,71.99 -68,71.99zm554.41 296.01l137.6 0 -119.2 -205.61c61.59,-31.2 103.2,-93.6 103.2,-162.39 0,-106.41 -85.6,-192.01 -192,-192.01l-224.01 0 0 560.02 128 0 0 -184 60.8 0 105.61 184zm-166.41 -440l96.01 0c35.2,0 64,31.2 64,72 0,40.8 -28.8,71.99 -64,71.99l-96.01 0 0 -143.99zm674.41 -280.01l-143.99 0 -64 112 115.2 0 92.8 -112zm-182.4 596.81l0 -99.19 200 0 0 -121.61 -200 0 0 -92.8 220.01 0 0 -123.21 -348.01 0 0 560.02 352.01 0 0 -123.21 -224.01 0zm296.01 -58.4l304.01 0 0 -115.21 -304.01 0 0 115.21zm667.22 192.8c102.4,0 192,-50.4 240,-129.6l-110.4 -64c-24,43.2 -72.8,68.81 -129.6,68.81 -99.2,0 -163.2,-66.41 -163.2,-166.41 0,-100 64,-166.4 163.2,-166.4 56.8,0 104.8,25.6 129.6,68.8l110.4 -64c-48.8,-79.19 -138.4,-129.6 -240,-129.6 -168.81,0 -291.21,126.4 -291.21,291.21 0,164.8 122.4,291.21 291.21,291.21zm656 -11.2l140.01 0 -190.4 -560.02 -163.2 0 -190.4 560.02 140 0 28 -88 208.01 0 28 88zm-197.6 -208.01l65.6 -205.6 65.6 205.6 -131.2 0zm697.62 -352.01l0 304.01 -216.01 -304.01 -96.01 0 0 560.02 128 0 0 -304 216.01 304 96.01 0 0 -560.02 -128 0zm448.01 0l-224.01 0 0 560.02 224.01 0c154.4,0 272.01,-121.6 272.01,-280.01 0,-158.4 -117.6,-280.01 -272.01,-280.01zm0 436.81l-96.01 0 0 -313.6 96.01 0c88,0 148.8,60.8 148.8,156.8 0,96.01 -60.79,156.8 -148.8,156.8zm344 -436.81l0 560.02 128 0 0 -560.02 -128 0zm448.02 0l-224.01 0 0 560.02 224.01 0c154.4,0 272.01,-121.6 272.01,-280.01 0,-158.4 -117.6,-280.01 -272.01,-280.01zm0 436.81l-96.01 0 0 -313.6 96.01 0c88,0 148.8,60.8 148.8,156.8 0,96.01 -60.79,156.8 -148.8,156.8zm680.01 123.21l140.01 0 -190.4 -560.02 -163.2 0 -190.4 560.02 140 0 28 -88 208.01 0 28 88zm-197.6 -208.01l65.6 -205.6 65.6 205.6 -131.2 0zm721.61 -352.01l-416.01 0 0 123.21 144 0 0 436.81 128 0 0 -436.81 144 0 0 -123.21zm291.21 571.21c160.8,0 291.21,-126.4 291.21,-291.21 0,-164.8 -130.41,-291.21 -291.21,-291.21 -160.81,0 -291.21,126.4 -291.21,291.21 0,164.8 130.4,291.21 291.21,291.21zm0 -124.8c-91.2,0 -163.2,-66.41 -163.2,-166.41 0,-100 72,-166.4 163.2,-166.4 91.2,0 163.2,66.4 163.2,166.4 0,100 -72,166.41 -163.2,166.41zm759.21 124.8c121.6,0 208.01,-64 208.01,-172 0,-118.4 -95.21,-148 -180.01,-173.6 -87.21,-26.4 -100.8,-44 -100.8,-69.59 0,-22.41 20,-42.4 60,-42.4 51.2,0 77.61,24.8 96.81,64.8l108 -63.2c-40.81,-82.4 -112.8,-126.4 -204.81,-126.4 -96.8,0 -188,62.4 -188,170.41 0,107.2 81.6,147.2 164.8,170.41 84,23.19 116,36.8 116,71.19 0,21.61 -15.2,45.61 -76.01,45.61 -63.2,0 -97.59,-31.21 -117.6,-77.61l-110.4 64c31.21,82.4 106.41,138.4 224.01,138.4zm396 -134.4l0 -99.19 200 0 0 -121.61 -200 0 0 -92.8 220.01 0 0 -123.21 -348.01 0 0 560.02 352.01 0 0 -123.21 -224.01 0zm608.02 -436.81l0 304.01 -216.01 -304.01 -96.01 0 0 560.02 128 0 0 -304 216.01 304 96.01 0 0 -560.02 -128 0zm580 560.02l140.01 0 -190.4 -560.02 -163.2 0 -190.4 560.02 140 0 28 -88 208.01 0 28 88zm-197.6 -208.01l65.6 -205.6 65.6 205.6 -131.2 0zm609.61 -352.01l-224.01 0 0 560.02 224.01 0c154.4,0 272.01,-121.6 272.01,-280.01 0,-158.4 -117.6,-280.01 -272.01,-280.01zm0 436.81l-96.01 0 0 -313.6 96.01 0c88,0 148.8,60.8 148.8,156.8 0,96.01 -60.79,156.8 -148.8,156.8zm611.21 134.4c160.8,0 291.21,-126.4 291.21,-291.21 0,-164.8 -130.41,-291.21 -291.21,-291.21 -160.81,0 -291.21,126.4 -291.21,291.21 0,164.8 130.4,291.21 291.21,291.21zm0 -124.8c-91.2,0 -163.2,-66.41 -163.2,-166.41 0,-100 72,-166.4 163.2,-166.4 91.2,0 163.2,66.4 163.2,166.4 0,100 -72,166.41 -163.2,166.41zm657.61 113.6l137.6 0 -119.2 -205.61c61.59,-31.2 103.2,-93.6 103.2,-162.39 0,-106.41 -85.6,-192.01 -192,-192.01l-224.01 0 0 560.02 128 0 0 -184 60.8 0 105.61 184zm-166.41 -440l96.01 0c35.2,0 64,31.2 64,72 0,40.8 -28.8,71.99 -64,71.99l-96.01 0 0 -143.99z"/>
   <path class="fil0" d="M1846.18 1775.87l-1088.77 0 0 296.94c-77.46,22.95 -131.97,50.21 -163.52,81.76 238.12,-60.24 447.56,-88.93 628.3,-86.07 137.7,2.87 275.41,25.82 413.12,68.86l0 834.86c-109.02,-91.8 -252.47,-140.58 -430.35,-146.31 -157.79,-2.87 -306.98,17.21 -447.56,60.24l0 383.01 1088.77 0 0 757.4 -1846.18 0 0 -3012.4 1846.18 0 0 761.71z"/>
   <path class="fil0" d="M2147.03 1014.16l757.4 0 0 159.23c88.94,209.43 242.43,447.56 460.47,714.37 203.69,240.99 314.15,361.49 331.36,361.49 17.21,0 127.67,-120.5 331.36,-361.49 220.91,-266.81 374.4,-504.93 460.46,-714.37l0 -159.23 757.4 0 0 3012.4 -757.4 0 0 -1381.4c34.43,-54.51 63.12,-130.54 86.08,-228.08 -344.28,395.91 -636.91,593.88 -877.9,593.88 -117.62,0 -253.91,-53.8 -408.83,-161.39 -154.92,-107.58 -308.41,-248.88 -460.46,-423.88 20.08,91.8 45.9,164.96 77.46,219.47l0 1381.4 -757.4 0 0 -3012.4z"/>
   <polygon class="fil0" points="6376.9,4026.56 5619.5,4026.56 5619.5,1014.16 6376.9,1014.16 "/>
   <polygon class="fil0" points="8627.19,3269.16 8627.19,4026.56 6750.9,4026.56 6750.9,1014.16 7508.3,1014.16 7508.3,3269.16 "/>
   <polygon class="fil0" points="9552.05,4026.56 8794.64,4026.56 8794.64,1014.16 9552.05,1014.16 "/>
   <path class="fil1" d="M10739.87 1065.81c188.89,-80.33 387.66,-120.52 596.3,-120.52 208.63,0 407.38,40.19 596.31,120.52 188.89,80.36 355.23,191.72 499.02,334.1 47.65,47.18 91.72,96.92 132.27,149.21 -154.95,264.72 -311.32,473.48 -510.16,580.13 -37.8,-72.5 -88.03,-140.1 -150.74,-202.83 -155.06,-155.06 -343.98,-232.6 -566.7,-232.6 -222.74,0 -411.63,77.54 -566.7,232.6 -155.06,155.07 -232.6,343.96 -232.6,566.7 0,216.92 73.56,401.75 220.63,554.48 -91.06,225.19 -127.07,503.08 -107.99,833.82 -151.83,-74.92 -287.34,-172.59 -406.55,-292.97 -142.38,-143.79 -253.74,-309.44 -334.1,-496.91 -80.34,-187.5 -120.52,-386.97 -120.52,-598.41 0,-208.63 40.18,-407.41 120.52,-596.3 80.36,-188.89 191.02,-355.23 331.98,-499.02 143.79,-140.96 310.14,-251.63 499.03,-331.99z"/>
   <path class="fil2" d="M10806.71 3552.86c9.73,-13.95 5.59,-6.67 9.15,-24.81l13.05 -64.78c33.05,-137.36 84.85,-256.98 163.96,-370.52 27.28,-39.15 67.72,-87.28 98.13,-116.41 281.16,-269.31 545.18,-291.91 875.33,-412.03 189.34,-68.88 394.79,-187.76 528.84,-329.44 46.3,-48.94 53.44,-49.18 103.18,-111.49 14.97,-18.77 29.42,-39.08 45.28,-59.84 16.28,-21.31 25.07,-40.41 42.31,-60.85 24.53,21.74 74.25,109.96 91.22,143.3 25.96,51.02 49.34,105.35 68.14,164.02 39.35,122.78 60.29,276.87 50.27,417.47 -20.31,284.55 -98.49,514.75 -230.59,701.9 -229.64,325.37 -615.97,372.43 -1016.69,387.33 -75.46,2.8 -150.72,4.17 -226.07,6.59 -74.33,2.4 -152.59,9.69 -225.85,9.97 9.67,-24.28 66.07,-76.64 83.5,-94.33 81.52,-82.74 190.71,-166.23 289.02,-232.06 281.26,-188.31 574.77,-345.68 791.6,-601.16 48.03,-56.57 98.65,-125.73 139.35,-206.52 28.39,-56.34 84.36,-184.89 83.62,-259.44 -71.03,218.44 -245.34,391.67 -387.88,498.19 -324.22,242.25 -780.03,378.56 -1099.67,673.79 -186.24,172.02 -208.83,243.91 -322.23,453.16 -8.52,15.72 -31.58,58.03 -36.33,74.71 101.36,-5.1 213.71,-28.89 319.41,-38.42 333.37,-30.08 651.72,16.68 1017.86,-31.73 377.98,-49.99 681.87,-213.18 879.53,-526.36 181.31,-287.27 292.25,-733.63 209.86,-1143.96 -39.87,-198.59 -115.03,-351 -209.64,-491.54 -45.21,-67.16 -49.66,-81.79 -101.83,-132.16 -24.14,-23.29 -159.52,-150.29 -194.32,-155.91 -117.84,308.16 -271.63,441.11 -546.09,639.41 -234.09,169.13 -503.56,208.3 -793.76,388.62 -118.32,73.51 -235.24,172.7 -312.27,278.99 -17.6,24.26 -31.68,44.29 -48.06,70.2 -93.57,148.08 -163.67,376.17 -151.32,556.1z"/>
   <path class="fil3" d="M10757.5 3047.6c-147.07,-152.74 -220.63,-337.57 -220.63,-554.48 0,-222.74 77.54,-411.63 232.6,-566.7 155.07,-155.06 343.96,-232.6 566.7,-232.6 222.72,0 411.64,77.54 566.7,232.6 62.7,62.73 112.94,130.33 150.74,202.83 -377.31,201.89 -1153.78,469.95 -1296.1,918.35z"/>
  </g>
 </g>
</svg>
